<?xml version="1.0" encoding="UTF-8"?>
<svg version="1.1" xmlns="http://www.w3.org/2000/svg" width="512" height="512">
<path d="M0 0 C0 5.28 0 10.56 0 16 C5.28 16 10.56 16 16 16 C16 10.72 16 5.44 16 0 C20.29 0.33 24.58 0.66 29 1 C28.2575 3.5678125 28.2575 3.5678125 27.5 6.1875 C23.54590104 23.63876369 24.95756958 41.19520303 34.16333008 56.68139648 C42.93482 70.56260074 55.80543555 81.03398422 72 85 C91.03965571 88.8551369 107.28525891 85.72869952 123.87109375 75.42578125 C126.36510108 73.75548276 128.67164332 71.8917898 131 70 C131.66 70 132.32 70 133 70 C134.63415009 73.3497826 136.25563353 76.70554885 137.875 80.0625 C138.56529297 81.47692383 138.56529297 81.47692383 139.26953125 82.91992188 C145.57799986 96.03970803 145.57799986 96.03970803 144.171875 100.80859375 C143.70265625 101.67613281 143.2334375 102.54367188 142.75 103.4375 C136.15915494 115.86013212 135.80650236 132.22357607 139.43847656 145.69555664 C141.50458695 152.29078147 144.44721338 157.95081163 148.64453125 163.47265625 C151.58154652 168.94887781 149.81618894 174.89514628 148.3125 180.625 C148.13533447 181.31215088 147.95816895 181.99930176 147.77563477 182.70727539 C146.03010562 189.25093436 144.14891224 195.98844027 141 202 C138 203 138 203 135.46875 201.890625 C134.4890625 201.34921875 133.509375 200.8078125 132.5 200.25 C117.95838854 192.71702579 101.90652909 191.01826061 86.04736328 195.55908203 C77.00567219 198.49146119 69.28783612 202.86033043 62 209 C61.35675781 209.53109375 60.71351563 210.0621875 60.05078125 210.609375 C47.85719045 221.67951137 42.08346926 237.87071155 41.05029297 253.93603516 C40.84901626 262.19619692 42.35869242 270.49929236 45.4140625 278.16796875 C46 280 46 280 46 284 C35.85944605 286.51929387 26.41651885 287.54313514 16 288 C16 282.72 16 277.44 16 272 C10.72 272 5.44 272 0 272 C0 277.28 0 282.56 0 288 C-38.25548573 286.84074286 -73.32219659 269.12029314 -99.39501953 241.5234375 C-120.96876629 217.78358818 -136 184.28111725 -136 152 C-130.72 152 -125.44 152 -120 152 C-120 146.72 -120 141.44 -120 136 C-125.28 136 -130.56 136 -136 136 C-136 104.50296912 -122.36870825 73.62770157 -102 50 C-100.75089844 48.54980469 -100.75089844 48.54980469 -99.4765625 47.0703125 C-75.05123656 19.29205546 -37.4074919 0 0 0 Z M-64.125 64.5 C-65.49011719 65.75296875 -65.49011719 65.75296875 -66.8828125 67.03125 C-67.93082031 68.00578125 -67.93082031 68.00578125 -69 69 C-65.5831159 73.81868271 -62.00966309 78.12747805 -57.76953125 82.23828125 C-55.38325573 84.61402134 -53.21338568 87.15001436 -51.015625 89.69921875 C-48.55519731 92.5077302 -46.03025008 95.25461879 -43.5 98 C-39.90092004 101.90828135 -36.35789093 105.85559095 -32.87890625 109.87109375 C-30.91349468 112.09801538 -28.91173152 114.28931877 -26.89941406 116.47387695 C-25.46274573 118.03506613 -24.03404636 119.6032848 -22.60546875 121.171875 C-21.07413806 122.83406903 -19.52237957 124.4785199 -17.92578125 126.078125 C-16.25 127.8125 -16.25 127.8125 -14 131 C-14.125 134.1875 -14.125 134.1875 -15 138 C-15.13673639 139.95533042 -15.2152254 141.91520291 -15.25 143.875 C-15.28867188 145.29425781 -15.28867188 145.29425781 -15.328125 146.7421875 C-15.01526671 149.8484234 -14.34207755 151.52175598 -13.1015625 154.31640625 C-12.10155025 157.16608317 -11.76423412 158.40514455 -12.88867188 161.2421875 C-14.50386631 163.65336664 -16.25108092 165.84645172 -18.125 168.0625 C-19.43307873 169.7184039 -20.73903536 171.37598615 -22.04296875 173.03515625 C-23.03756104 174.27289795 -23.03756104 174.27289795 -24.05224609 175.53564453 C-26.99372847 179.25729445 -29.73276032 183.10443483 -32.4375 187 C-32.91525879 187.66394775 -33.39301758 188.32789551 -33.88525391 189.01196289 C-35.00601157 190.6201806 -36.0149375 192.30526881 -37 194 C-35.68374806 197.94875582 -33.94634602 198.54992713 -30.4375 200.6875 C-28.91962891 201.62142578 -28.91962891 201.62142578 -27.37109375 202.57421875 C-26.58863281 203.04472656 -25.80617187 203.51523437 -25 204 C-24.6690332 203.50822266 -24.33806641 203.01644531 -23.99707031 202.50976562 C-17.43765491 192.78575958 -10.80100884 183.1722263 -3.60839844 173.90234375 C-0.91993073 170.80674789 -0.91993073 170.80674789 0 167 C0.9178125 167.04640625 1.835625 167.0928125 2.78125 167.140625 C12.13482922 167.41573027 17.60603161 166.69492796 24.75 160.6875 C29.30915479 155.24184289 32.11140371 150.25516643 32 143 C31.26469305 136.26406314 28.38535975 129.91968799 23.2109375 125.45703125 C16.78734546 121.09359522 10.51471138 119.45818753 2.875 120.8125 C-0.04506079 121.19161145 -1.41551223 121.36221777 -3.94140625 119.796875 C-5.78886617 117.96181414 -7.3939405 116.04897759 -9 114 C-10.07816879 112.76630074 -11.16164425 111.53722183 -12.25 110.3125 C-12.82234375 109.64863281 -13.3946875 108.98476563 -13.984375 108.30078125 C-16.44480269 105.4922698 -18.96974992 102.74538121 -21.5 100 C-25.10032448 96.09036721 -28.64418014 92.14133061 -32.125 88.125 C-34.54550275 85.38176355 -37.02211255 82.69125414 -39.5 80 C-44.75462669 74.28922396 -49.95499918 68.55427638 -54.8125 62.5 C-55.534375 61.675 -56.25625 60.85 -57 60 C-60.26696117 60 -61.7920404 62.34649883 -64.125 64.5 Z " fill="#714FE9" transform="translate(232,152)"/>
<path d="M0 0 C-1.28418826 3.85256478 -2.66902757 4.23480082 -6.125 6.25 C-11.66297782 9.65190066 -16.91570996 13.38073201 -20.21630859 19.11206055 C-22 21 -22 21 -24.69775391 21.23876953 C-25.77976074 21.12130371 -26.86176758 21.00383789 -27.9765625 20.8828125 C-29.192229 20.76881104 -30.40789551 20.65480957 -31.66040039 20.53735352 C-32.96871826 20.40127686 -34.27703613 20.2652002 -35.625 20.125 C-79.79488243 16.23881576 -121.20653122 29.20368427 -155.3918457 57.36254883 C-186.09552586 83.22377229 -206.57791386 121.90713671 -210.18383789 162.04638672 C-213.55989144 206.24467726 -200.66697595 248.62183465 -171.8125 282.5 C-169.89667203 284.6867653 -167.95349972 286.84690992 -166 289 C-165.360625 289.72316406 -164.72125 290.44632812 -164.0625 291.19140625 C-136.72141248 320.42439938 -95.11285324 335.58033009 -55.8203125 337.125 C-42.66742306 337.3680095 -29.9110132 336.15295134 -17.22998047 332.66162109 C-5.29765927 329.44438771 -5.29765927 329.44438771 -1.25390625 331.17578125 C0.625 333.1875 0.625 333.1875 2.20703125 335.515625 C4.48358762 338.67006912 7.05899097 340.32753201 10.3125 342.4375 C11.31925781 343.09621094 12.32601562 343.75492187 13.36328125 344.43359375 C15.9681983 346.10754596 15.9681983 346.10754596 19 347 C19 347.66 19 348.32 19 349 C10.27432604 352.59147259 1.56117236 355.55897999 -7.625 357.75 C-8.85609497 358.04716919 -8.85609497 358.04716919 -10.11206055 358.3503418 C-23.5253174 361.42972145 -36.66718346 362.40881273 -50.375 362.375 C-51.20771423 362.37445618 -52.04042847 362.37391235 -52.89837646 362.37335205 C-66.90699061 362.33144522 -80.34674256 361.34852489 -94 358 C-94.85609863 357.79101074 -95.71219727 357.58202148 -96.59423828 357.36669922 C-144.63619953 345.16193837 -185.04161974 314.43766015 -210.375 272.05859375 C-227.81106133 242.27198898 -237.94827933 206.6959531 -236 172 C-235.95891113 171.25411621 -235.91782227 170.50823242 -235.87548828 169.73974609 C-232.86582835 119.71015951 -211.84468127 73.94427972 -174.78125 39.99609375 C-126.86449367 -2.40463802 -61.42089952 -15.81837551 0 0 Z " fill="#8040F0" transform="translate(291,118)"/>
<path d="M0 0 C10.23906578 7.73254248 18.72711365 17.59665562 20.6875 30.6875 C22.11678455 48.13329299 19.50517553 61.04058775 8.03125 74.65234375 C0.02533375 83.28136197 -10.26078398 88.35475631 -21.96875 89.00390625 C-38.65548452 89.56319388 -50.64291019 85.89777041 -63.0625 74.375 C-73.05541038 63.81645319 -75.82689781 52.26922077 -75.73217773 38.15722656 C-75.32139743 24.03483761 -69.475381 12.95884274 -59.25 3.28125 C-42.59283172 -10.42061423 -18.05009418 -11.9794347 0 0 Z M-35.3125 0.6875 C-35.3125 3.6575 -35.3125 6.6275 -35.3125 9.6875 C-36.17875 9.914375 -37.045 10.14125 -37.9375 10.375 C-42.87105091 12.29360313 -46.06900475 14.9880565 -49.1875 19.25 C-51.09284472 25.07188664 -51.54426353 31.21461116 -49.46875 37.06640625 C-46.61636891 42.14480096 -42.82287733 45.743124 -37.3125 47.6875 C-31.70110828 48.79002754 -26.00788257 49.25387428 -20.3125 49.6875 C-20.3125 51.6675 -20.3125 53.6475 -20.3125 55.6875 C-24.9325 55.6875 -29.5525 55.6875 -34.3125 55.6875 C-34.8075 54.2025 -34.8075 54.2025 -35.3125 52.6875 C-40.2625 52.6875 -45.2125 52.6875 -50.3125 52.6875 C-50.3125 59.70521265 -48.79941838 62.53585297 -44.3125 67.6875 C-41.58824231 69.8026069 -38.87312169 71.6875 -35.3125 71.6875 C-35.3125 74.6575 -35.3125 77.6275 -35.3125 80.6875 C-30.0325 80.6875 -24.7525 80.6875 -19.3125 80.6875 C-19.3125 77.7175 -19.3125 74.7475 -19.3125 71.6875 C-18.44625 71.460625 -17.58 71.23375 -16.6875 71 C-11.75394909 69.08139687 -8.55599525 66.3869435 -5.4375 62.125 C-3.53215528 56.30311336 -3.08073647 50.16038884 -5.15625 44.30859375 C-8.00863109 39.23019904 -11.80212267 35.631876 -17.3125 33.6875 C-22.92389172 32.58497246 -28.61711743 32.12112572 -34.3125 31.6875 C-34.3125 29.7075 -34.3125 27.7275 -34.3125 25.6875 C-29.6925 25.6875 -25.0725 25.6875 -20.3125 25.6875 C-19.9825 26.6775 -19.6525 27.6675 -19.3125 28.6875 C-14.3625 28.6875 -9.4125 28.6875 -4.3125 28.6875 C-4.3125 21.66978735 -5.82558162 18.83914703 -10.3125 13.6875 C-13.03675769 11.5723931 -15.75187831 9.6875 -19.3125 9.6875 C-19.3125 6.7175 -19.3125 3.7475 -19.3125 0.6875 C-24.5925 0.6875 -29.8725 0.6875 -35.3125 0.6875 Z " fill="#607EEA" transform="translate(347.3125,135.3125)"/>
<path d="M0 0 C10.25043521 7.74112867 18.70526266 17.59173526 20.6875 30.6875 C21.96836177 44.82795902 21.06844427 57.71255554 12.4375 69.5625 C4.06048815 79.29647921 -6.30950268 87.6011099 -19.55273438 88.90869141 C-36.29194278 89.71018162 -48.24843021 87.01387295 -61.27734375 76.03125 C-69.90636197 68.02533375 -74.97975631 57.73921602 -75.62890625 46.03125 C-76.18819388 29.34451548 -72.52277041 17.35708981 -61 4.9375 C-44.70456176 -10.48496833 -18.58433045 -12.3339951 0 0 Z M-35.3125 0.6875 C-35.3125 3.6575 -35.3125 6.6275 -35.3125 9.6875 C-36.17875 9.914375 -37.045 10.14125 -37.9375 10.375 C-42.87105091 12.29360313 -46.06900475 14.9880565 -49.1875 19.25 C-51.09284472 25.07188664 -51.54426353 31.21461116 -49.46875 37.06640625 C-46.61636891 42.14480096 -42.82287733 45.743124 -37.3125 47.6875 C-31.70110828 48.79002754 -26.00788257 49.25387428 -20.3125 49.6875 C-20.3125 51.6675 -20.3125 53.6475 -20.3125 55.6875 C-24.9325 55.6875 -29.5525 55.6875 -34.3125 55.6875 C-34.8075 54.2025 -34.8075 54.2025 -35.3125 52.6875 C-40.2625 52.6875 -45.2125 52.6875 -50.3125 52.6875 C-50.3125 59.70521265 -48.79941838 62.53585297 -44.3125 67.6875 C-41.58824231 69.8026069 -38.87312169 71.6875 -35.3125 71.6875 C-35.3125 74.6575 -35.3125 77.6275 -35.3125 80.6875 C-30.0325 80.6875 -24.7525 80.6875 -19.3125 80.6875 C-19.3125 77.7175 -19.3125 74.7475 -19.3125 71.6875 C-18.44625 71.460625 -17.58 71.23375 -16.6875 71 C-11.75394909 69.08139687 -8.55599525 66.3869435 -5.4375 62.125 C-3.53215528 56.30311336 -3.08073647 50.16038884 -5.15625 44.30859375 C-8.00863109 39.23019904 -11.80212267 35.631876 -17.3125 33.6875 C-22.92389172 32.58497246 -28.61711743 32.12112572 -34.3125 31.6875 C-34.3125 29.7075 -34.3125 27.7275 -34.3125 25.6875 C-29.6925 25.6875 -25.0725 25.6875 -20.3125 25.6875 C-19.9825 26.6775 -19.6525 27.6675 -19.3125 28.6875 C-14.3625 28.6875 -9.4125 28.6875 -4.3125 28.6875 C-4.3125 21.66978735 -5.82558162 18.83914703 -10.3125 13.6875 C-13.03675769 11.5723931 -15.75187831 9.6875 -19.3125 9.6875 C-19.3125 6.7175 -19.3125 3.7475 -19.3125 0.6875 C-24.5925 0.6875 -29.8725 0.6875 -35.3125 0.6875 Z " fill="#6D4EE7" transform="translate(363.3125,367.3125)"/>
<path d="M0 0 C10.23906578 7.73254248 18.72711365 17.59665562 20.6875 30.6875 C22.11678455 48.13329299 19.50517553 61.04058775 8.03125 74.65234375 C0.12191061 83.17726852 -10.12759693 88.32181422 -21.7109375 89.00390625 C-38.30315429 89.59469226 -50.72631665 85.79539682 -63.0625 74.375 C-73.05541038 63.81645319 -75.82689781 52.26922077 -75.73217773 38.15722656 C-75.32139743 24.03483761 -69.475381 12.95884274 -59.25 3.28125 C-42.59283172 -10.42061423 -18.05009418 -11.9794347 0 0 Z M-35.3125 0.6875 C-35.3125 3.6575 -35.3125 6.6275 -35.3125 9.6875 C-36.17875 9.914375 -37.045 10.14125 -37.9375 10.375 C-42.87105091 12.29360313 -46.06900475 14.9880565 -49.1875 19.25 C-51.09284472 25.07188664 -51.54426353 31.21461116 -49.46875 37.06640625 C-46.61636891 42.14480096 -42.82287733 45.743124 -37.3125 47.6875 C-31.70110828 48.79002754 -26.00788257 49.25387428 -20.3125 49.6875 C-20.3125 51.6675 -20.3125 53.6475 -20.3125 55.6875 C-24.9325 55.6875 -29.5525 55.6875 -34.3125 55.6875 C-34.8075 54.2025 -34.8075 54.2025 -35.3125 52.6875 C-40.2625 52.6875 -45.2125 52.6875 -50.3125 52.6875 C-50.3125 59.70521265 -48.79941838 62.53585297 -44.3125 67.6875 C-41.58824231 69.8026069 -38.87312169 71.6875 -35.3125 71.6875 C-35.3125 74.6575 -35.3125 77.6275 -35.3125 80.6875 C-30.0325 80.6875 -24.7525 80.6875 -19.3125 80.6875 C-19.3125 77.7175 -19.3125 74.7475 -19.3125 71.6875 C-18.44625 71.460625 -17.58 71.23375 -16.6875 71 C-11.75394909 69.08139687 -8.55599525 66.3869435 -5.4375 62.125 C-3.53215528 56.30311336 -3.08073647 50.16038884 -5.15625 44.30859375 C-8.00863109 39.23019904 -11.80212267 35.631876 -17.3125 33.6875 C-22.92389172 32.58497246 -28.61711743 32.12112572 -34.3125 31.6875 C-34.3125 29.7075 -34.3125 27.7275 -34.3125 25.6875 C-29.6925 25.6875 -25.0725 25.6875 -20.3125 25.6875 C-19.9825 26.6775 -19.6525 27.6675 -19.3125 28.6875 C-14.3625 28.6875 -9.4125 28.6875 -4.3125 28.6875 C-4.3125 21.66978735 -5.82558162 18.83914703 -10.3125 13.6875 C-13.03675769 11.5723931 -15.75187831 9.6875 -19.3125 9.6875 C-19.3125 6.7175 -19.3125 3.7475 -19.3125 0.6875 C-24.5925 0.6875 -29.8725 0.6875 -35.3125 0.6875 Z " fill="#607FEB" transform="translate(459.3125,239.3125)"/>
<path d="M0 0 C2.81344075 1.12477306 4.39750125 2.7200929 6.5521698 4.85083008 C7.84789665 6.12268913 7.84789665 6.12268913 9.1697998 7.42024231 C10.09286423 8.34310532 11.01592865 9.26596832 11.96696472 10.21679688 C12.92742047 11.1701516 13.88817409 12.12320631 14.84921265 13.07597351 C16.85909933 15.07242356 18.86295896 17.0747036 20.86320496 19.08081055 C23.43011718 21.65363168 26.01484225 24.20769952 28.60480213 26.75729084 C30.59252796 28.71920519 32.56870822 30.69243628 34.54173851 32.66911888 C35.95200753 34.07686643 37.37335955 35.47348256 38.7947998 36.86994934 C39.6428569 37.72731186 40.490914 38.58467438 41.3646698 39.46801758 C42.11871597 40.22000931 42.87276215 40.97200104 43.6496582 41.7467804 C45.13493347 43.85351562 45.13493347 43.85351562 44.99815369 45.97874451 C43.68394796 48.83298135 41.67790959 50.64364686 39.44352722 52.83789062 C38.97882523 53.29834778 38.51412323 53.75880493 38.03533936 54.23321533 C36.55461529 55.69719374 35.06378828 57.15037603 33.57243347 58.60351562 C32.56458683 59.59631012 31.55741714 60.58979233 30.5509491 61.58398438 C28.08673886 64.01518035 25.61336018 66.43680431 23.13493347 68.85351562 C19.64521344 67.35821239 17.40027952 65.361599 14.73356628 62.67919922 C13.87297607 61.81845795 13.01238586 60.95771667 12.12571716 60.07089233 C11.20578979 59.1406424 10.28586243 58.21039246 9.33805847 57.25195312 C8.3801425 56.29030476 7.42178233 55.32909868 6.46299744 54.36831665 C3.94658222 51.84428281 1.4362324 49.31429971 -1.07289124 46.78302002 C-3.63669094 44.19872372 -6.20619571 41.62011364 -8.77522278 39.04101562 C-13.8107611 33.98405866 -18.83991213 28.92079306 -23.86506653 23.85351562 C-21.13249611 18.05791798 -16.46588291 14.0450805 -11.99006653 9.54101562 C-10.62301575 8.1246582 -10.62301575 8.1246582 -9.22834778 6.6796875 C-7.90770325 5.3484082 -7.90770325 5.3484082 -6.56037903 3.99023438 C-5.75616516 3.17256592 -4.95195129 2.35489746 -4.12336731 1.51245117 C-1.86506653 -0.14648438 -1.86506653 -0.14648438 0 0 Z " fill="#5CA0F1" transform="translate(398.8650665283203,92.146484375)"/>
<path d="M0 0 C2.85423685 1.31420573 4.66490235 3.32024409 6.85914612 5.55462646 C7.54983185 6.25167946 7.54983185 6.25167946 8.25447083 6.96281433 C9.71844923 8.4435384 11.17163152 9.93436541 12.62477112 11.42572021 C13.61756561 12.43356686 14.61104782 13.44073654 15.60523987 14.44720459 C18.03643584 16.91141483 20.4580598 19.38479351 22.87477112 21.86322021 C21.37946788 25.35294025 19.3828545 27.59787417 16.70045471 30.2645874 C15.4093428 31.55547272 15.4093428 31.55547272 14.09214783 32.87243652 C12.69677292 34.25232758 12.69677292 34.25232758 11.27320862 35.66009521 C10.31156025 36.61801119 9.35035418 37.57637136 8.38957214 38.53515625 C5.8655383 41.05157147 3.3355552 43.56192129 0.80427551 46.07104492 C-1.78002079 48.63484462 -4.35863087 51.20434939 -6.93772888 53.77337646 C-11.99468585 58.80891478 -17.05795145 63.83806582 -22.12522888 68.86322021 C-27.92082653 66.13064979 -31.93366401 61.4640366 -36.43772888 56.98822021 C-37.38196716 56.07685303 -38.32620544 55.16548584 -39.29905701 54.22650146 C-40.18657654 53.34607178 -41.07409607 52.46564209 -41.98851013 51.55853271 C-42.80617859 50.75431885 -43.62384705 49.95010498 -44.46629333 49.121521 C-46.12522888 46.86322021 -46.12522888 46.86322021 -45.97874451 44.99815369 C-44.85397145 42.18471293 -43.2586516 40.60065244 -41.12791443 38.44598389 C-39.85605537 37.15025703 -39.85605537 37.15025703 -38.5585022 35.82835388 C-37.63563919 34.90528946 -36.71277618 33.98222504 -35.76194763 33.03118896 C-34.80859291 32.07073322 -33.8555382 31.1099796 -32.902771 30.14894104 C-30.90632094 28.13905436 -28.90404091 26.13519473 -26.89793396 24.13494873 C-24.32511283 21.56803651 -21.77104499 18.98331144 -19.22145367 16.39335155 C-17.25953932 14.40562573 -15.28630823 12.42944547 -13.30962563 10.45641518 C-11.90187808 9.04614615 -10.50526195 7.62479414 -9.10879517 6.20335388 C-8.25143265 5.35529678 -7.39407013 4.50723969 -6.51072693 3.63348389 C-5.7587352 2.87943771 -5.00674347 2.12539154 -4.23196411 1.34849548 C-2.12522888 -0.13677979 -2.12522888 -0.13677979 0 0 Z " fill="#6651E6" transform="translate(82.12522888183594,92.13677978515625)"/>
<path d="M0 0 C21.12 0 42.24 0 64 0 C64 10.56 64 21.12 64 32 C42.88 32 21.76 32 0 32 C0 21.44 0 10.88 0 0 Z " fill="#5F8CED" transform="translate(208,24)"/>
<path d="M0 0 C5.05558232 1.96186777 9.93275499 4.26764252 14.84375 6.5625 C17.53841242 7.78977199 20.24031073 8.92907581 23 10 C22.4531803 16.09115611 21.10083368 21.29251916 18.9375 27 C18.63166992 27.81944092 18.32583984 28.63888184 18.01074219 29.4831543 C14.89742421 37.61752217 11.04816864 45.29967922 7 53 C5.99547768 54.99773244 4.99386035 56.99694194 4 59 C3.34 59 2.68 59 2 59 C1.23816406 57.31583984 1.23816406 57.31583984 0.4609375 55.59765625 C-0.23365548 54.08560676 -0.92901936 52.57391126 -1.625 51.0625 C-2.15891357 49.88433716 -2.15891357 49.88433716 -2.70361328 48.68237305 C-4.70280437 44.37728155 -6.72251769 40.90358855 -9.875 37.3125 C-11.3203125 35.26171875 -11.3203125 35.26171875 -12 33 C-11.08378208 29.39652435 -9.62499359 26.3782341 -7.9453125 23.0625 C-5.60726202 18.42852607 -4.12963941 13.58031614 -2.625 8.625 C-2.36299805 7.77373535 -2.10099609 6.9224707 -1.83105469 6.04541016 C-1.21433982 4.03221176 -0.6062061 2.01638766 0 0 Z " fill="#6166E6" transform="translate(395,332)"/>
<path d="M0 0 C10.21598653 3.40532884 18.74283823 25.07594813 23.7890625 34.25390625 C25 37 25 37 25 41 C24.154375 41.43570313 23.30875 41.87140625 22.4375 42.3203125 C21.303125 42.91585937 20.16875 43.51140625 19 44.125 C17.88625 44.70507812 16.7725 45.28515625 15.625 45.8828125 C11.45730891 48.18809577 7.74445892 51.0712982 4 54 C2.01383559 50.25366605 0.03729629 46.5023371 -1.9375 42.75 C-2.78344727 41.15478516 -2.78344727 41.15478516 -3.64648438 39.52734375 C-4.45375977 37.99013672 -4.45375977 37.99013672 -5.27734375 36.421875 C-5.77484131 35.47924805 -6.27233887 34.53662109 -6.78491211 33.56542969 C-7.85017593 31.31632537 -8.65080869 29.45644794 -9 27 C-7.890625 24.2578125 -7.890625 24.2578125 -6.25 21.125 C-2.87335474 14.20680354 -1.30100021 7.61199243 0 0 Z " fill="#5F87EC" transform="translate(383,181)"/>
<path d="M0 0 C5.28 0 10.56 0 16 0 C16 13.2 16 26.4 16 40 C10.72 40 5.44 40 0 40 C0 26.8 0 13.6 0 0 Z " fill="#6081EB" transform="translate(232,64)"/>
<path d="M0 0 C3.63303084 1.69586126 5.94549046 3.73800488 8.75 6.625 C9.54921875 7.44226563 10.3484375 8.25953125 11.171875 9.1015625 C11.77515625 9.72804687 12.3784375 10.35453125 13 11 C10.97699054 15.43626553 8.02132242 18.38251359 4.625 21.8125 C4.0475 22.42287109 3.47 23.03324219 2.875 23.66210938 C2.31039063 24.23380859 1.74578125 24.80550781 1.1640625 25.39453125 C0.65311035 25.91893799 0.1421582 26.44334473 -0.38427734 26.98364258 C-2 28 -2 28 -4.0480957 27.78320312 C-6.89333855 26.64154721 -8.64049223 24.83143659 -10.8125 22.6875 C-11.62332031 21.90761719 -12.43414062 21.12773437 -13.26953125 20.32421875 C-15 18 -15 18 -14.80566406 16.07055664 C-13.85429127 13.62552856 -12.71642318 12.37273607 -10.83984375 10.546875 C-10.21142578 9.928125 -9.58300781 9.309375 -8.93554688 8.671875 C-8.27619141 8.03765625 -7.61683594 7.4034375 -6.9375 6.75 C-6.27427734 6.1003125 -5.61105469 5.450625 -4.92773438 4.78125 C-3.29170683 3.1805324 -1.64909088 1.58723807 0 0 Z " fill="#5E92EE" transform="translate(385,138)"/>
<path d="M0 0 C4.43626553 2.02300946 7.38251359 4.97867758 10.8125 8.375 C11.72805664 9.24125 11.72805664 9.24125 12.66210938 10.125 C13.23380859 10.68960938 13.80550781 11.25421875 14.39453125 11.8359375 C14.91893799 12.34688965 15.44334473 12.8578418 15.98364258 13.38427734 C17 15 17 15 16.78320312 17.0480957 C15.64154721 19.89333855 13.83143659 21.64049223 11.6875 23.8125 C10.90761719 24.62332031 10.12773438 25.43414062 9.32421875 26.26953125 C7 28 7 28 5.07055664 27.80566406 C2.62552856 26.85429127 1.37273607 25.71642318 -0.453125 23.83984375 C-1.071875 23.21142578 -1.690625 22.58300781 -2.328125 21.93554688 C-2.96234375 21.27619141 -3.5965625 20.61683594 -4.25 19.9375 C-4.8996875 19.27427734 -5.549375 18.61105469 -6.21875 17.92773438 C-7.8194676 16.29170683 -9.41276193 14.64909088 -11 13 C-9.30413874 9.36696916 -7.26199512 7.05450954 -4.375 4.25 C-3.55773437 3.45078125 -2.74046875 2.6515625 -1.8984375 1.828125 C-0.95871094 0.92320312 -0.95871094 0.92320312 0 0 Z " fill="#6952E5" transform="translate(93,138)"/>
<path d="M0 0 C2.5 1.5 2.5 1.5 4 4 C4.791013 8.02098277 4.62153384 10.96411027 2.5 14.5 C-1.03588973 16.62153384 -3.97901723 16.791013 -8 16 C-10.5 14.5 -10.5 14.5 -12 12 C-12.791013 7.97901723 -12.62153384 5.03588973 -10.5 1.5 C-6.96411027 -0.62153384 -4.02098277 -0.791013 0 0 Z " fill="#6952E5" transform="translate(244,288)"/>
</svg>
